<svg id="Capa_1" enable-background="new 0 0 512 512" height="512" viewBox="0 0 512 512" width="512" xmlns="http://www.w3.org/2000/svg" xmlns:xlink="http://www.w3.org/1999/xlink"><linearGradient id="SVGID_1_" gradientUnits="userSpaceOnUse" x1="256" x2="256" y1="512" y2="0"><stop offset="0" stop-color="#fd5900"/><stop offset="1" stop-color="#ffde00"/></linearGradient><g><g><path d="m509.48 278.68-60-90c-5.566-8.35-19.395-8.35-24.961 0l-60 90c-3.062 4.6-3.354 10.518-.747 15.396s7.691 7.924 13.228 7.924h14.121c-5.186 42.129-34.398 68.423-90.121 83.145v-173.145h45c8.291 0 15-6.709 15-15s-6.709-15-15-15h-45v-47.308c18.706-13.872 30-36.02 30-59.692 0-41.353-33.647-75-75-75s-75 33.647-75 75c0 23.672 11.294 45.82 30 59.692v47.308h-45c-8.291 0-15 6.709-15 15s6.709 15 15 15h45v173.145c-55.723-14.722-84.936-41.016-90.121-83.145h14.121c5.537 0 10.62-3.047 13.228-7.925s2.314-10.796-.747-15.396l-60-90c-5.566-8.35-19.395-8.35-24.961 0l-60 90c-3.062 4.6-3.354 10.518-.747 15.396s7.69 7.925 13.227 7.925h15.527c7.573 106.392 96.713 143.057 155.922 167.695 23.716 9.858 46.113 19.189 52.397 28.608l4.673 7.017c2.783 4.175 7.456 6.68 12.48 6.68s9.697-2.505 12.48-6.68l4.673-7.017c6.284-9.419 28.682-18.735 52.383-28.594 59.209-24.639 148.363-61.318 155.937-167.71h15.528c5.537 0 10.62-3.047 13.228-7.925s2.314-10.795-.748-15.394zm-42.48-6.68c-8.291 0-15 6.709-15 15 0 98.013-76.952 129.609-137.978 155.01-24.653 10.254-45.117 18.765-58.022 30.645-12.905-11.895-33.369-20.405-58.037-30.659-61.011-25.387-137.963-56.983-137.963-154.996 0-8.291-6.709-15-15-15h-1.978l31.978-47.959 31.978 47.959h-1.978c-8.291 0-15 6.709-15 15 0 70.693 44.184 113.774 133.041 131.704 4.395.894 8.965-.249 12.466-3.105 3.472-2.842 5.493-7.104 5.493-11.602v-277.405c0-5.405-2.9-10.386-7.603-13.052-14.033-7.939-22.397-22.353-22.397-38.54 0-24.814 20.186-45 45-45s45 20.186 45 45c0 16.187-8.364 30.601-22.397 38.54-4.702 2.666-7.603 7.646-7.603 13.052v277.405c0 4.497 2.021 8.76 5.493 11.602 3.472 2.827 8.042 3.97 12.466 3.105 88.857-17.93 133.041-61.011 133.041-131.704 0-8.291-6.709-15-15-15h-1.978l31.978-47.959 31.978 47.959zm-211-212c-8.284 0-15 6.716-15 15s6.716 15 15 15 15-6.716 15-15-6.716-15-15-15z" fill="url(#SVGID_1_)"/></g></g></svg>