<svg id="Capa_1" enable-background="new 0 0 512 512" height="512" viewBox="0 0 512 512" width="512" xmlns="http://www.w3.org/2000/svg" xmlns:xlink="http://www.w3.org/1999/xlink"><linearGradient id="SVGID_1_" gradientUnits="userSpaceOnUse" x1="256" x2="256" y1="512" y2="0"><stop offset="0" stop-color="#5558ff"/><stop offset="1" stop-color="#00c0ff"/></linearGradient><g><g><path d="m105 180c-8.284 0-15 6.714-15 15 0 8.284 6.716 15 15 15s15-6.716 15-15c0-8.286-6.716-15-15-15zm262.698-180h-125.471c-159.024 0-242.227 128.276-242.227 255 0 8.291 6.709 15 15 15h75v62h-15c-24.814 0-45 20.186-45 45v90c0 24.814 20.186 45 45 45h60c24.814 0 45-20.186 45-45v-90c0-24.814-20.186-45-45-45h-15v-62h377c8.291 0 15-6.709 15-15 0-59.824-10.4-255-144.302-255zm-277.698 482h-15c-8.276 0-15-6.724-15-15v-90c0-8.276 6.724-15 15-15h15zm45-120c8.276 0 15 6.724 15 15v90c0 8.276-6.724 15-15 15h-15v-120zm-104.575-122c5.859-103.857 72.7-210 211.802-210h125.472c97.485 0 112.324 145.488 114.097 210zm134.575-60c-8.284 0-15 6.714-15 15 0 8.284 6.716 15 15 15s15-6.716 15-15c0-8.286-6.716-15-15-15zm212-120h-152c-24.814 0-45 20.186-45 45s20.186 45 45 45h152c24.814 0 45-20.186 45-45s-20.186-45-45-45zm0 60h-152c-8.276 0-15-6.724-15-15s6.724-15 15-15h152c8.276 0 15 6.724 15 15s-6.724 15-15 15z" fill="url(#SVGID_1_)"/></g></g></svg>