<svg id="Capa_1" enable-background="new 0 0 512.028 512.028" height="512" viewBox="0 0 512.028 512.028" width="512" xmlns="http://www.w3.org/2000/svg" xmlns:xlink="http://www.w3.org/1999/xlink"><linearGradient id="lg1"><stop offset="0" stop-color="#fd5900"/><stop offset="1" stop-color="#ffde00"/></linearGradient><linearGradient id="SVGID_1_" gradientUnits="userSpaceOnUse" x1="406.014" x2="406.014" xlink:href="#lg1" y1="512.028" y2=".028"/><linearGradient id="SVGID_2_" gradientUnits="userSpaceOnUse" x1="76.014" x2="76.014" xlink:href="#lg1" y1="512.028" y2="0"/><linearGradient id="SVGID_3_" gradientUnits="userSpaceOnUse" x1="226.014" x2="226.014" y1="512.028" y2=".028"><stop offset="0" stop-color="#ffe59a"/><stop offset="1" stop-color="#ffffd5"/></linearGradient><g><path d="m481.014 150.028c0-62.637-28.535-150-75-150s-75 87.363-75 150c0 65.543 32.845 84.203 60 88.616v258.384c0 8.291 6.709 15 15 15s15-6.709 15-15v-258.384c27.155-4.413 60-23.073 60-88.616z" fill="url(#SVGID_1_)"/><path d="m99.364 1.595c-42.158 20.889-68.35 63.281-68.35 110.64v105.586c0 44.072 22.874 83.606 60 105.749v173.458c0 8.291 6.709 15 15 15s15-6.709 15-15v-482c0-5.186-2.695-10.005-7.09-12.744-4.424-2.769-9.99-3.047-14.56-.689z" fill="url(#SVGID_2_)"/><path d="m286.014.028c-8.291 0-15 6.709-15 15v135h-30v-135c0-8.291-6.709-15-15-15s-15 6.709-15 15v135h-30v-135c0-8.291-6.709-15-15-15s-15 6.709-15 15v150c0 36.216 25.803 66.513 60 73.482v258.518c0 8.291 6.709 15 15 15s15-6.709 15-15v-258.518c34.197-6.969 60-37.266 60-73.482v-150c0-8.291-6.709-15-15-15z" fill="url(#SVGID_3_)"/></g></svg>