<svg id="Capa_1" enable-background="new 0 0 512 512" height="512" viewBox="0 0 512 512" width="512" xmlns="http://www.w3.org/2000/svg" xmlns:xlink="http://www.w3.org/1999/xlink"><linearGradient id="SVGID_1_" gradientUnits="userSpaceOnUse" x1="256" x2="256" y1="512" y2="0"><stop offset="0" stop-color="#fd5900"/><stop offset="1" stop-color="#ffde00"/></linearGradient><g><g><path d="m113.881 2.241c-4.424-2.739-9.961-2.974-14.59-.659-42.129 21.064-68.291 63.398-68.291 110.493v105.85c0 43.846 22.874 83.333 60 105.603v173.472c0 8.291 6.709 15 15 15s15-6.709 15-15v-182-300c0-5.2-2.695-10.02-7.119-12.759zm-22.881 284.4c-18.926-17.402-30-42.056-30-68.716v-105.85c0-26.66 11.074-51.313 30-68.716zm195-286.641c-8.291 0-15 6.709-15 15v135h-30v-135c0-8.291-6.709-15-15-15s-15 6.709-15 15v135h-30v-135c0-8.291-6.709-15-15-15s-15 6.709-15 15v150c0 36.216 25.809 66.513 60 73.482v258.518c0 8.291 6.709 15 15 15s15-6.709 15-15v-258.518c34.191-6.969 60-37.266 60-73.482v-150c0-8.291-6.709-15-15-15zm-60 210c-19.53 0-36.024-12.578-42.237-30h84.474c-6.213 17.422-22.707 30-42.237 30zm180-210c-46.465 0-75 87.363-75 150 0 65.542 32.845 84.203 60 88.616v258.384c0 8.291 6.709 15 15 15s15-6.709 15-15v-258.384c27.155-4.413 60-23.073 60-88.616 0-62.637-28.535-150-75-150zm0 210c-20.947 0-45-6.826-45-60 0-60.703 28.477-120 45-120s45 59.297 45 120c0 53.174-24.053 60-45 60z" fill="url(#SVGID_1_)"/></g></g></svg>