<svg id="Capa_1" enable-background="new 0 0 512 512" height="512" viewBox="0 0 512 512" width="512" xmlns="http://www.w3.org/2000/svg" xmlns:xlink="http://www.w3.org/1999/xlink"><linearGradient id="SVGID_1_" gradientUnits="userSpaceOnUse" x1="256" x2="256" y1="512" y2="0"><stop offset="0" stop-color="#fd5900"/><stop offset="1" stop-color="#ffde00"/></linearGradient><g><g><path d="m117.865 109.076c5.859 5.859 15.351 5.859 21.211 0 5.859-5.859 5.859-15.352 0-21.211l-20.889-20.889c-5.859-5.859-15.352-5.859-21.211 0s-5.859 15.352 0 21.211zm275.948.308 21.211-21.196c5.859-5.845 5.859-15.352 0-21.211s-15.352-5.859-21.211 0l-21.211 21.196c-5.859 5.845-5.859 15.352 0 21.211s15.351 5.859 21.211 0zm-137.813-49.384c8.291 0 15-6.709 15-15v-30c0-8.291-6.709-15-15-15s-15 6.709-15 15v30c0 8.291 6.709 15 15 15zm-179.971 151h-30.029c-8.291 0-15 6.709-15 15s6.709 15 15 15h30.029c8.291 0 15-6.709 15-15s-6.709-15-15-15zm389.971 0h-30c-8.291 0-15 6.709-15 15s6.709 15 15 15h30c8.291 0 15-6.709 15-15s-6.709-15-15-15zm-347.871 131.646-21.24 21.24c-5.859 5.859-5.859 15.352 0 21.211s15.351 5.859 21.211 0l21.24-21.24c5.859-5.859 5.859-15.352 0-21.211s-15.352-5.86-21.211 0zm275.742 0c-5.859-5.859-15.352-5.859-21.211 0s-5.859 15.352 0 21.211l21.24 21.24c5.859 5.859 15.351 5.859 21.211 0 5.859-5.859 5.859-15.352 0-21.211zm-53.965-222.408c-32.52-25.796-74.824-35.112-116.104-25.488-48.193 11.191-86.924 49.497-98.672 97.588-9.697 39.609-2.256 79.219 20.947 111.533 22.853 31.817 34.923 68.438 34.923 105.938 0 22.72 18.486 41.191 41.191 41.191h67.764c22.647 0 41.045-18.413 41.045-41.045 0-36.035 12.51-72.803 37.148-109.277 14.942-22.149 22.852-47.959 22.852-74.678 0-41.426-18.633-79.966-51.094-105.762zm3.399 163.638c-28.067 41.528-42.305 83.936-42.305 126.079 0 6.094-4.951 11.045-11.045 11.045h-67.764c-6.181 0-11.191-5.024-11.191-11.191 0-43.813-14.033-86.499-40.547-123.428-18.018-25.093-23.76-55.957-16.201-86.924 10.773-43.993 50.684-78.398 101.514-78.398 58.534 0 105.234 47.051 105.234 104.941 0 20.713-6.123 40.723-17.695 57.876zm-57.305 198.124h-60c-8.291 0-15 6.709-15 15s6.709 15 15 15h60c8.291 0 15-6.709 15-15s-6.709-15-15-15zm-30-301c-8.291 0-15 6.709-15 15v90c0 8.291 6.709 15 15 15s15-6.709 15-15v-90c0-8.291-6.709-15-15-15zm0 150c-8.284 0-15 6.714-15 15 0 8.284 6.716 15 15 15s15-6.716 15-15c0-8.286-6.716-15-15-15z" fill="url(#SVGID_1_)"/></g></g></svg>