<svg id="Capa_1" enable-background="new 0 0 511.998 511.998" height="512" viewBox="0 0 511.998 511.998" width="512" xmlns="http://www.w3.org/2000/svg" xmlns:xlink="http://www.w3.org/1999/xlink"><linearGradient id="SVGID_1_" gradientUnits="userSpaceOnUse" x1="255.999" x2="255.999" y1="480.999" y2="30.999"><stop offset="0" stop-color="#00b59c"/><stop offset="1" stop-color="#9cffac"/></linearGradient><g><g><path d="m45 210.999h60c24.814 0 45-20.186 45-45 0-20.273-13.477-37.456-31.934-43.066-5.61-18.458-22.793-31.934-43.066-31.934s-37.456 13.477-43.066 31.934c-18.457 5.61-31.934 22.792-31.934 43.066 0 24.814 20.186 45 45 45zm0-60c8.291 0 15-6.709 15-15 0-8.276 6.724-15 15-15s15 6.724 15 15c0 8.291 6.709 15 15 15 8.276 0 15 6.724 15 15s-6.724 15-15 15h-60c-8.276 0-15-6.724-15-15s6.724-15 15-15zm331 0h60c24.814 0 45-20.186 45-45 0-20.273-13.477-37.456-31.934-43.066-5.61-18.457-22.793-31.934-43.066-31.934s-37.456 13.477-43.066 31.934c-18.457 5.61-31.934 22.792-31.934 43.066 0 24.814 20.186 45 45 45zm0-60c8.291 0 15-6.709 15-15 0-8.276 6.724-15 15-15s15 6.724 15 15c0 8.291 6.709 15 15 15 8.276 0 15 6.724 15 15s-6.724 15-15 15h-60c-8.276 0-15-6.724-15-15s6.724-15 15-15zm133.48 366.68-241-360c-5.566-8.35-19.395-8.35-24.961 0l-241 360c-3.062 4.6-3.354 10.518-.747 15.396s7.69 7.925 13.228 7.925h482c5.537 0 10.62-3.047 13.228-7.925s2.314-10.797-.748-15.396zm-253.48-324.639 74.835 112.251c-7.375 4.008-13.37 10.073-18.409 15.586-3.003 3.281-9.243 10.122-11.426 10.122s-8.423-6.841-11.426-10.122c-8.101-8.862-18.179-19.878-33.574-19.878s-25.474 11.016-33.574 19.878c-3.003 3.281-9.243 10.122-11.426 10.122s-8.423-6.841-11.426-10.122c-5.039-5.513-11.034-11.578-18.409-15.586zm-212.978 317.959 119.555-177.83c2.238-1.771 3.409-2.17 3.422-2.17 2.183 0 8.423 6.841 11.426 10.122 8.101 8.862 18.179 19.878 33.574 19.878s25.474-11.016 33.574-19.878c3.003-3.281 9.243-10.122 11.426-10.122s8.423 6.841 11.426 10.122c8.101 8.862 18.179 19.878 33.574 19.878s25.474-11.016 33.574-19.878c3.003-3.281 9.243-10.122 11.426-10.122.013 0 1.185.399 3.422 2.17l119.555 177.83z" fill="url(#SVGID_1_)"/></g></g></svg>