<svg id="Capa_1" enable-background="new 0 0 512 512" height="512" viewBox="0 0 512 512" width="512" xmlns="http://www.w3.org/2000/svg" xmlns:xlink="http://www.w3.org/1999/xlink"><linearGradient id="SVGID_1_" gradientUnits="userSpaceOnUse" x1="256" x2="256" y1="481" y2="31"><stop offset="0" stop-color="#00b59c"/><stop offset="1" stop-color="#9cffac"/></linearGradient><linearGradient id="SVGID_2_" gradientUnits="userSpaceOnUse" x1="256" x2="256" y1="286.015" y2="91.3"><stop offset="0" stop-color="#c3ffe8"/><stop offset=".9973" stop-color="#f0fff4"/></linearGradient><g><g><g><path d="m45 211h60c24.814 0 45-20.186 45-45 0-20.273-13.477-37.456-31.934-43.066-5.625-18.457-22.792-31.934-43.066-31.934s-37.441 13.477-43.066 31.934c-18.457 5.61-31.934 22.793-31.934 43.066 0 24.815 20.186 45 45 45zm331-60h60c24.814 0 45-20.186 45-45 0-20.273-13.477-37.456-31.934-43.066-5.625-18.457-22.793-31.934-43.066-31.934s-37.441 13.477-43.066 31.934c-18.457 5.61-31.934 22.793-31.934 43.066 0 24.815 20.186 45 45 45zm133.547 306.599-115.548-171.899c-19.5 3.6-29.399-44.7-47.999-44.7-17.703 0-162.297 0-180 0-18.6 0-28.499 48.6-47.999 44.7l-115.548 171.899c-3.003 4.801-3.303 10.501-.6 15.601 2.699 4.799 7.8 7.8 13.198 7.8h481.898c5.398 0 10.499-3.001 13.198-7.8 2.703-5.1 2.403-10.8-.6-15.601z" fill="url(#SVGID_1_)"/></g></g><g><g><path d="m268.598 97.599c-5.698-8.399-19.497-8.399-25.195 0l-125.402 188.101c19.501 3.9 29.399-29.7 47.999-29.7 17.703 0 27.297 30 45 30s27.297-30 45-30 27.297 30 45 30 27.297-30 45-30c18.6 0 28.499 33.3 47.999 29.7z" fill="url(#SVGID_2_)"/></g></g></g></svg>