<svg id="Capa_1" enable-background="new 0 0 511.849 511.849" height="512" viewBox="0 0 511.849 511.849" width="512" xmlns="http://www.w3.org/2000/svg" xmlns:xlink="http://www.w3.org/1999/xlink"><linearGradient id="SVGID_1_" gradientUnits="userSpaceOnUse" x1="330.353" x2="330.353" y1="416.897" y2="86.146"><stop offset="0" stop-color="#ffe59a"/><stop offset="1" stop-color="#ffffd5"/></linearGradient><linearGradient id="SVGID_2_" gradientUnits="userSpaceOnUse" x1="255.925" x2="255.925" y1="505.397" y2="166.403"><stop offset="0" stop-color="#fd5900"/><stop offset="1" stop-color="#ffde00"/></linearGradient><g><g><g><path d="m148.857 118.096v103.801c0 19.948 30 19.853 30 0v-107.701l-15-28.05zm347.992 57.9-15 31.8v134.101c0 6.771 5.324 15 15 15 9.765 0 15-8.311 15-15v-137.701zm-255 61.8v164.101c0 6.771 5.324 15 15 15 9.765 0 15-8.311 15-15v-168l-15-28.051z" fill="url(#SVGID_1_)"/></g></g><g><g><path d="m328.857 82.097v-60.6c0-4.2-1.802-8.401-5.098-11.1-3.303-3.001-7.5-4.2-11.704-3.9l-150 18.9c-7.5 1.199-13.198 7.5-13.198 15v77.699l166.802-20.999c7.5-1.201 13.198-7.5 13.198-15zm177.894 36.9c-3.303-2.701-7.2-3.9-11.704-3.6l-240 30c-7.5 1.199-13.198 7.5-13.198 15v77.399l30-3.898v.298l210-26.1v-.3l30-3.6v-73.799c0-4.2-1.802-8.401-5.098-11.4zm-287.109 227.406c-16.494 0-28.682 7.529-37.207 16.992-8.525-9.463-20.713-16.992-37.207-16.992-29.297 0-52.236 24.331-52.236 55.386 0 32.607 25.371 54.023 60.498 83.643 6.006 5.083 12.393 10.474 19.131 16.304 2.813 2.446 6.299 3.662 9.814 3.662s7.002-1.216 9.814-3.662c6.768-5.874 13.184-11.294 19.189-16.377 36.387-30.762 60.41-51.079 60.41-83.569.001-31.056-22.938-55.387-52.206-55.387zm240-60c-16.494 0-28.682 7.529-37.207 16.992-8.525-9.463-20.713-16.992-37.207-16.992-29.297 0-52.236 24.331-52.236 55.386 0 32.607 25.371 54.023 60.498 83.643 6.006 5.083 12.393 10.474 19.131 16.304 2.813 2.446 6.299 3.662 9.814 3.662s7.002-1.216 9.814-3.662c6.768-5.874 13.184-11.294 19.189-16.377 36.387-30.762 60.41-51.079 60.41-83.569.001-31.056-22.938-55.387-52.206-55.387zm-341.195 18.955c36.387-30.762 60.41-51.079 60.41-83.569 0-31.055-22.939-55.386-52.207-55.386-16.494 0-28.682 7.529-37.207 16.992-8.525-9.463-20.713-16.992-37.207-16.992-29.297 0-52.236 24.331-52.236 55.386 0 32.607 25.371 54.023 60.498 83.643 6.006 5.083 12.393 10.474 19.131 16.304 2.813 2.446 6.299 3.662 9.814 3.662s7.002-1.216 9.814-3.662c6.768-5.875 13.184-11.295 19.19-16.378z" fill="url(#SVGID_2_)"/></g></g></g></svg>