<svg id="Capa_1" enable-background="new 0 0 511.843 511.843" height="512" viewBox="0 0 511.843 511.843" width="512" xmlns="http://www.w3.org/2000/svg" xmlns:xlink="http://www.w3.org/1999/xlink"><linearGradient id="SVGID_1_" gradientUnits="userSpaceOnUse" x1="255.921" x2="255.921" y1="505.281" y2="6.562"><stop offset="0" stop-color="#fd5900"/><stop offset="1" stop-color="#ffde00"/></linearGradient><g><g><path d="m494.982 115.398-241 30c-6.992.876-13.14 7.928-13.14 14.883v191.257c-6.725-3.289-14.187-5.251-22.207-5.251-16.479 0-28.696 7.529-37.222 16.992-8.511-9.463-20.713-16.992-37.207-16.992-29.282 0-52.207 24.331-52.207 55.386 0 38.32 35.051 61.246 79.585 99.946 2.827 2.446 6.328 3.662 9.829 3.662s7.002-1.216 9.829-3.662c46.747-40.562 79.6-62.034 79.6-99.946v-167.683l211-26.263v83.811c-6.725-3.289-14.187-5.251-22.207-5.251-16.479 0-28.696 7.529-37.222 16.992-8.511-9.463-20.713-16.992-37.207-16.992-29.282 0-52.207 24.331-52.207 55.386 0 38.32 35.051 61.246 79.585 99.946 2.827 2.446 6.328 3.662 9.829 3.662s7.002-1.216 9.829-3.662c46.747-40.562 79.6-62.034 79.6-99.946v-211.392c.001-8.454-8.165-15.888-16.86-14.883zm-303.944 346.963c-3.105 2.622-6.313 5.332-9.624 8.159-3.296-2.798-6.489-5.508-9.595-8.115-33.647-28.403-49.819-42.846-49.819-60.732 0-12.612 7.632-25.386 22.207-25.386 16.362 0 22.529 20.464 22.749 21.24 1.787 6.46 7.661 10.898 14.37 10.942 6.694.791 12.641-4.424 14.517-10.84.249-.864 6.431-21.343 22.793-21.343 14.575 0 22.207 12.773 22.207 25.386 0 17.784-16.172 32.242-49.805 60.689zm241-60c-3.105 2.622-6.313 5.332-9.624 8.159-3.296-2.798-6.489-5.508-9.595-8.115-33.647-28.403-49.819-42.846-49.819-60.732 0-12.612 7.632-25.386 22.207-25.386 16.362 0 22.529 20.464 22.749 21.24 1.787 6.46 7.661 10.898 14.37 10.942 7.69.542 12.627-4.424 14.517-10.84.249-.864 6.431-21.343 22.793-21.343 14.575 0 22.207 12.773 22.207 25.386 0 17.784-16.172 32.242-49.805 60.689zm49.805-224.866-211 26.263v-30.236l211-26.25zm-303 44.178v-107.681l136.86-17.109c7.5-.938 13.14-7.324 13.14-14.883v-60.469c0-4.307-1.846-8.394-5.068-11.25-3.223-2.842-7.573-4.072-11.792-3.633l-150 18.75c-7.5.938-13.14 7.324-13.14 14.883v131.257c-6.725-3.289-14.187-5.251-22.207-5.251-16.479 0-28.696 7.529-37.222 16.992-8.511-9.463-20.713-16.992-37.207-16.992-29.282 0-52.207 24.331-52.207 55.386 0 38.321 35.051 61.246 79.585 99.946 2.827 2.446 6.328 3.662 9.829 3.662s7.002-1.216 9.829-3.662c46.747-40.561 79.6-62.033 79.6-99.946zm0-168.15 120-15v30.234l-120 15zm-89.429 236.997c-3.296-2.798-6.489-5.508-9.595-8.115-33.647-28.403-49.819-42.846-49.819-60.732 0-12.612 7.632-25.386 22.207-25.386 16.362 0 22.529 20.464 22.749 21.24 1.787 6.46 7.661 10.898 14.37 10.942 6.313.044 12.641-4.409 14.517-10.84.249-.864 6.431-21.343 22.793-21.343 14.575 0 22.207 12.773 22.207 25.386 0 17.783-16.172 32.241-49.805 60.688-3.105 2.623-6.313 5.333-9.624 8.16z" fill="url(#SVGID_1_)"/></g></g></svg>