<svg id="Capa_1" enable-background="new 0 0 512 512" height="512" viewBox="0 0 512 512" width="512" xmlns="http://www.w3.org/2000/svg" xmlns:xlink="http://www.w3.org/1999/xlink"><linearGradient id="lg1"><stop offset="0" stop-color="#fd5900"/><stop offset="1" stop-color="#ffde00"/></linearGradient><linearGradient id="SVGID_1_" gradientUnits="userSpaceOnUse" x1="256" x2="256" xlink:href="#lg1" y1="451" y2="61"/><linearGradient id="lg2"><stop offset="0" stop-color="#ffe59a"/><stop offset="1" stop-color="#ffffd5"/></linearGradient><linearGradient id="SVGID_2_" gradientUnits="userSpaceOnUse" x1="316" x2="316" xlink:href="#lg2" y1="421" y2="151"/><linearGradient id="SVGID_3_" gradientUnits="userSpaceOnUse" x1="316" x2="316" xlink:href="#lg1" y1="361" y2="211"/><linearGradient id="SVGID_4_" gradientUnits="userSpaceOnUse" x1="75" x2="75" xlink:href="#lg2" y1="391" y2="181"/><g><path d="m497 121h-81.728l-25.853-51.706c-2.541-5.083-7.736-8.294-13.419-8.294h-120.003c-5.681 0-10.875 3.21-13.415 8.291l-25.854 51.709h-126.728v-15c0-8.291-6.709-15-15-15s-15 6.709-15 15v15h-45c-8.284 0-15 6.716-15 15v45c0 16.569 13.431 30 30 30h75c8.284 0 15 6.716 15 15v120c0 8.284-6.716 15-15 15h-75c-16.569 0-30 13.431-30 30v45c0 8.284 6.716 15 15 15h482c8.284 0 15-6.716 15-15v-300c0-8.284-6.716-15-15-15z" fill="url(#SVGID_1_)"/><path d="m316 421c-74.443 0-135-60.557-135-135s60.557-135 135-135 135 60.557 135 135-60.557 135-135 135z" fill="url(#SVGID_2_)"/><path d="m316 361c-41.353 0-75-33.647-75-75s33.647-75 75-75 75 33.647 75 75-33.647 75-75 75z" fill="url(#SVGID_3_)"/><path d="m105 391h-105v-210h105c24.853 0 45 20.147 45 45v120c0 24.853-20.147 45-45 45z" fill="url(#SVGID_4_)"/></g></svg>