<svg id="Capa_1" enable-background="new 0 0 512 512" height="512" viewBox="0 0 512 512" width="512" xmlns="http://www.w3.org/2000/svg" xmlns:xlink="http://www.w3.org/1999/xlink"><linearGradient id="SVGID_1_" gradientUnits="userSpaceOnUse" x1="256" x2="256" y1="466" y2="46"><stop offset="0" stop-color="#5558ff"/><stop offset="1" stop-color="#00c0ff"/></linearGradient><g><g><path d="m497 106h-51.728l-25.854-51.709c-2.549-5.083-7.734-8.291-13.418-8.291h-180c-5.684 0-10.869 3.208-13.418 8.291l-25.854 51.709h-96.728v-15c0-8.291-6.709-15-15-15s-15 6.709-15 15v15h-45c-8.291 0-15 6.709-15 15v330c0 8.291 6.709 15 15 15h482c8.291 0 15-6.709 15-15v-330c0-8.291-6.709-15-15-15zm-467 90h60v180h-60zm452 240h-452v-30h75c8.291 0 15-6.709 15-15v-210c0-8.291-6.709-15-15-15h-75v-30h166c5.684 0 10.869-3.208 13.418-8.291l25.854-51.709h161.455l25.854 51.709c2.55 5.083 7.735 8.291 13.419 8.291h46zm-166-300c-74.443 0-135 60.557-135 135s60.557 135 135 135 135-60.557 135-135-60.557-135-135-135zm0 240c-57.891 0-105-47.109-105-105s47.109-105 105-105 105 47.109 105 105-47.109 105-105 105zm0-180c-41.353 0-75 33.647-75 75s33.647 75 75 75 75-33.647 75-75-33.647-75-75-75zm0 120c-24.814 0-45-20.186-45-45s20.186-45 45-45 45 20.186 45 45-20.186 45-45 45z" fill="url(#SVGID_1_)"/></g></g></svg>