<svg id="Capa_1" enable-background="new 0 0 512.167 512.167" height="512" viewBox="0 0 512.167 512.167" width="512" xmlns="http://www.w3.org/2000/svg" xmlns:xlink="http://www.w3.org/1999/xlink"><linearGradient id="SVGID_1_" gradientTransform="matrix(.707 .707 -.707 .707 4053.266 1731.357)" gradientUnits="userSpaceOnUse" x1="-3727.881" x2="-3727.881" y1="1612.106" y2="1523.746"><stop offset="0" stop-color="#c3ffe8"/><stop offset=".9973" stop-color="#f0fff4"/></linearGradient><linearGradient id="SVGID_2_" gradientTransform="matrix(.707 .707 -.707 .707 4053.266 1731.357)" gradientUnits="userSpaceOnUse" x1="-3728.475" x2="-3728.475" y1="1907.502" y2="1288.824"><stop offset="0" stop-color="#00b59c"/><stop offset="1" stop-color="#9cffac"/></linearGradient><g><g><g><path d="m173.124 63.708-23.078 23.078c-5.863 5.863-5.863 15.351 0 21.213 5.863 5.863 15.35 5.863 21.213 0l23.078-23.078c5.863-5.863 5.863-15.351 0-21.213s-15.35-5.862-21.213 0zm60.615 24.238-23.078 23.078c-5.863 5.863-5.863 15.351 0 21.213 5.863 5.863 15.351 5.863 21.213 0l23.078-23.078c5.863-5.863 5.863-15.351 0-21.213-5.862-5.863-15.35-5.863-21.213 0zm190.919 190.919c5.863-5.863 5.863-15.351 0-21.213-5.863-5.863-15.351-5.863-21.213 0l-23.078 23.078c-5.863 5.863-5.863 15.351 0 21.213 5.863 5.863 15.351 5.863 21.213 0zm24.238 39.402c-5.863-5.863-15.351-5.863-21.213 0l-23.078 23.078c-5.863 5.863-5.863 15.351 0 21.213 5.863 5.863 15.351 5.863 21.213 0l23.078-23.078c5.862-5.863 5.862-15.351 0-21.213z" fill="url(#SVGID_1_)"/></g></g><g><g><path d="m378.002 218.407c154.956-158.271 138.128-201.514 127.998-211.644s-54.373-27.958-212.643 126.998l-187.947-75.189c-5.562-2.227-11.922-.922-16.169 3.325l-42.426 42.426c-6.98 6.98-5.489 18.706 3.325 23.73l162.103 90.053c-37.134 40.779-71.025 80.969-97.023 115.171h-79.015c-3.977 0-7.791 1.58-10.603 4.392l-21.213 21.213c-3.677 3.677-5.179 8.991-3.988 14.056 1.181 5.034 4.92 9.125 9.85 10.783l58.854 19.618c-7.292 15.123-11.145 30.328-1.077 40.396s25.273 6.215 40.396-1.077l19.618 58.854c1.632 4.895 5.707 8.667 10.782 9.85 5.065 1.191 10.379-.311 14.056-3.988l21.213-21.213c2.812-2.812 4.392-6.626 4.392-10.603v-79.015c34.202-25.999 74.391-59.89 115.171-97.023l90.052 162.103c5.129 8.964 16.87 10.185 23.73 3.325l42.427-42.426c4.247-4.247 5.552-10.607 3.325-16.169z" fill="url(#SVGID_2_)"/></g></g></g></svg>