<svg id="Capa_1" enable-background="new 0 0 512 512" height="512" viewBox="0 0 512 512" width="512" xmlns="http://www.w3.org/2000/svg" xmlns:xlink="http://www.w3.org/1999/xlink"><linearGradient id="SVGID_1_" gradientUnits="userSpaceOnUse" x1="256" x2="256" y1="511.962" y2=".038"><stop offset="0" stop-color="#a93aff"/><stop offset="1" stop-color="#ff81ff"/></linearGradient><g><g><path d="m491.421 20.617c-11.104-11.104-37.123-37.123-68.943-5.303-9.424 9.424-33.86 40.753-54.787 72.492l-24.762-24.762c-5.863-5.862-15.351-5.862-21.213 0l-258.711 258.633c-5.863 5.863-5.863 15.351 0 21.213l24.762 24.762c-31.738 20.928-63.067 45.364-72.491 54.788-31.82 31.82-5.801 57.839 5.303 68.943s37.123 37.123 68.943 5.303c9.424-9.424 33.86-40.753 54.787-72.492l24.762 24.762c5.863 5.863 15.351 5.863 21.213 0l258.71-258.634c5.863-5.863 5.863-15.351 0-21.213l-24.762-24.762c31.738-20.927 63.067-45.363 72.492-54.788 31.82-31.819 5.801-57.838-5.303-68.942zm-423.112 454.856c-8.152 8.152-10.607 10.606-26.516-5.303-15.91-15.91-13.455-18.365-5.303-26.517 7.832-7.832 40.616-33.438 72.968-54.311l13.162 13.163c-20.873 32.352-46.479 65.136-54.311 72.968zm111.369-58.336-84.853-84.853 237.497-237.421 84.853 84.853zm295.833-348.791c-7.832 7.832-40.616 33.438-72.968 54.311l-13.162-13.162c20.873-32.352 46.479-65.137 54.311-72.969 8.152-8.151 10.607-10.606 26.516 5.304 15.91 15.91 13.455 18.365 5.303 26.516z" fill="url(#SVGID_1_)"/></g></g></svg>