<svg id="Capa_1" enable-background="new 0 0 512 512" height="512" viewBox="0 0 512 512" width="512" xmlns="http://www.w3.org/2000/svg" xmlns:xlink="http://www.w3.org/1999/xlink"><linearGradient id="SVGID_1_" gradientUnits="userSpaceOnUse" x1="256" x2="256" y1="496" y2="16"><stop offset="0" stop-color="#fd5900"/><stop offset="1" stop-color="#ffde00"/></linearGradient><g><g><path d="m497 286h-76.76c-7.614-83.969-78.322-150-164.24-150s-156.627 66.031-164.24 150h-76.76c-8.291 0-15 6.709-15 15s6.709 15 15 15h482c8.291 0 15-6.709 15-15s-6.709-15-15-15zm-374.484 0c7.573-67.315 64.177-120 133.484-120s125.911 52.685 133.484 120zm283.484 60h-300c-8.291 0-15 6.709-15 15s6.709 15 15 15h300c8.291 0 15-6.709 15-15s-6.709-15-15-15zm-60 60h-180c-8.291 0-15 6.709-15 15s6.709 15 15 15h180c8.291 0 15-6.709 15-15s-6.709-15-15-15zm-60 60h-60c-8.291 0-15 6.709-15 15s6.709 15 15 15h60c8.291 0 15-6.709 15-15s-6.709-15-15-15zm-30-360c8.291 0 15-6.709 15-15v-60c0-8.291-6.709-15-15-15s-15 6.709-15 15v60c0 8.291 6.709 15 15 15zm-102.993 16.611c4.156 7.197 13.354 9.617 20.493 5.493 7.178-4.146 9.639-13.315 5.493-20.493l-30-51.958c-4.16-7.192-13.345-9.653-20.493-5.493-7.178 4.146-9.639 13.315-5.493 20.493zm-112.354 41.382 51.958 30c7.153 4.132 16.344 1.691 20.493-5.493 4.146-7.178 1.685-16.348-5.493-20.493l-51.958-30c-7.163-4.16-16.362-1.699-20.493 5.493-4.145 7.178-1.684 16.348 5.493 20.493zm297.847-35.889c7.153 4.132 16.344 1.691 20.493-5.493l30-51.958c4.146-7.178 1.685-16.348-5.493-20.493-7.192-4.16-16.362-1.699-20.493 5.493l-30 51.958c-4.146 7.178-1.685 16.348 5.493 20.493zm80.889 65.889 51.958-30c7.178-4.146 9.639-13.315 5.493-20.493-4.175-7.192-13.374-9.653-20.493-5.493l-51.958 30c-7.178 4.146-9.639 13.315-5.493 20.493 4.156 7.197 13.354 9.617 20.493 5.493z" fill="url(#SVGID_1_)"/></g></g></svg>