<svg id="Capa_1" enable-background="new 0 0 512 512" height="512" viewBox="0 0 512 512" width="512" xmlns="http://www.w3.org/2000/svg" xmlns:xlink="http://www.w3.org/1999/xlink"><linearGradient id="SVGID_1_" gradientUnits="userSpaceOnUse" x1="256" x2="256" y1="496" y2="148"><stop offset="0" stop-color="#fd5900"/><stop offset="1" stop-color="#ffde00"/></linearGradient><linearGradient id="SVGID_2_" gradientUnits="userSpaceOnUse" x1="256" x2="256" y1="195.999" y2="16"><stop offset="0" stop-color="#ffe59a"/><stop offset="1" stop-color="#ffffd5"/></linearGradient><g><g><g><path d="m406 346h-300c-8.291 0-15 6.709-15 15s6.709 15 15 15h300c8.291 0 15-6.709 15-15s-6.709-15-15-15zm-60 60h-180c-8.291 0-15 6.709-15 15s6.709 15 15 15h180c8.291 0 15-6.709 15-15s-6.709-15-15-15zm-60 60h-60c-8.291 0-15 6.709-15 15s6.709 15 15 15h60c8.291 0 15-6.709 15-15s-6.709-15-15-15zm211-168h-76.762c-7.624-83.903-78.398-150-164.238-150s-156.614 66.097-164.238 150h-76.762c-8.284 0-15 6.714-15 15 0 8.284 6.716 15 15 15h482c8.284 0 15-6.716 15-15 0-8.286-6.716-15-15-15z" fill="url(#SVGID_1_)"/></g></g><g><g><path d="m256 16c-8.291 0-15 6.709-15 15v60c0 8.291 6.709 15 15 15s15-6.709 15-15v-60c0-8.291-6.709-15-15-15zm-107.021 39.653c-4.131-7.207-13.33-9.624-20.479-5.493-7.178 4.146-9.639 13.315-5.479 20.493l30 51.958c4.088 7.153 13.269 9.632 20.479 5.493 7.178-4.146 9.639-13.315 5.479-20.493zm-41.368 112.354-51.943-30c-7.148-4.087-16.348-1.699-20.479 5.493-4.16 7.178-1.699 16.348 5.479 20.493l51.943 30c7.219 4.144 16.395 1.653 20.479-5.493 4.16-7.178 1.699-16.348-5.479-20.493zm275.889-117.847c-7.148-4.087-16.348-1.685-20.479 5.493l-30 51.958c-4.16 7.178-1.699 16.348 5.479 20.493 7.219 4.144 16.395 1.653 20.479-5.493l30-51.958c4.16-7.177 1.699-16.347-5.479-20.493zm93.311 93.34c-4.131-7.207-13.301-9.624-20.479-5.493l-51.943 30c-7.178 4.146-9.639 13.315-5.479 20.493 4.088 7.153 13.269 9.632 20.479 5.493l51.943-30c7.178-4.145 9.639-13.315 5.479-20.493z" fill="url(#SVGID_2_)"/></g></g></g></svg>